REM DIRINDEX 1\2,1\3,1\4
REM DIRNAME cjc151,folder01,folder02,folder03
TITLE ""
FILE "154 154_TOEFL_3900.mp3" MP3
  TRACK 01 AUDIO
    TITLE "2:cjc151_6707"
    INDEX 01 00:00:00
  TRACK 02 AUDIO
    TITLE "0:"
    INDEX 01 00:01:05
  TRACK 03 AUDIO
    TITLE "3:cjc151_6708"
    INDEX 01 00:02:65
  TRACK 04 AUDIO
    TITLE "0:"
    INDEX 01 00:06:43
  TRACK 05 AUDIO
    TITLE "2:cjc151_6709"
    INDEX 01 00:08:23
  TRACK 06 AUDIO
    TITLE "0:"
    INDEX 01 00:09:36
  TRACK 07 AUDIO
    TITLE "3:cjc151_6710"
    INDEX 01 00:11:15
  TRACK 08 AUDIO
    TITLE "0:"
    INDEX 01 00:15:23
  TRACK 09 AUDIO
    TITLE "2:cjc151_6711"
    INDEX 01 00:17:02
  TRACK 10 AUDIO
    TITLE "0:"
    INDEX 01 00:17:74
  TRACK 11 AUDIO
    TITLE "3:cjc151_6712"
    INDEX 01 00:19:62
  TRACK 12 AUDIO
    TITLE "0:"
    INDEX 01 00:23:28
  TRACK 13 AUDIO
    TITLE "2:cjc151_6713"
    INDEX 01 00:25:05
  TRACK 14 AUDIO
    TITLE "0:"
    INDEX 01 00:26:40
  TRACK 15 AUDIO
    TITLE "3:cjc151_6714"
    INDEX 01 00:28:17
  TRACK 16 AUDIO
    TITLE "0:"
    INDEX 01 00:32:64
  TRACK 17 AUDIO
    TITLE "2:cjc151_6715"
    INDEX 01 00:34:43
  TRACK 18 AUDIO
    TITLE "0:"
    INDEX 01 00:35:51
  TRACK 19 AUDIO
    TITLE "3:cjc151_6716"
    INDEX 01 00:37:30
  TRACK 20 AUDIO
    TITLE "0:"
    INDEX 01 00:41:00
  TRACK 21 AUDIO
    TITLE "2:cjc151_6717"
    INDEX 01 00:42:55
  TRACK 22 AUDIO
    TITLE "0:"
    INDEX 01 00:43:66
  TRACK 23 AUDIO
    TITLE "3:cjc151_6718"
    INDEX 01 00:45:45
  TRACK 24 AUDIO
    TITLE "0:"
    INDEX 01 00:49:61
  TRACK 25 AUDIO
    TITLE "2:cjc151_6719"
    INDEX 01 00:51:40
  TRACK 26 AUDIO
    TITLE "0:"
    INDEX 01 00:52:67
  TRACK 27 AUDIO
    TITLE "3:cjc151_6720"
    INDEX 01 00:54:46
  TRACK 28 AUDIO
    TITLE "0:"
    INDEX 01 00:57:74
  TRACK 29 AUDIO
    TITLE "2:cjc151_6721"
    INDEX 01 00:59:51
  TRACK 30 AUDIO
    TITLE "0:"
    INDEX 01 01:00:64
  TRACK 31 AUDIO
    TITLE "3:cjc151_6722"
    INDEX 01 01:02:44
  TRACK 32 AUDIO
    TITLE "0:"
    INDEX 01 01:06:71
  TRACK 33 AUDIO
    TITLE "2:cjc151_6723"
    INDEX 01 01:08:50
  TRACK 34 AUDIO
    TITLE "0:"
    INDEX 01 01:09:69
  TRACK 35 AUDIO
    TITLE "3:cjc151_6724"
    INDEX 01 01:11:51
  TRACK 36 AUDIO
    TITLE "0:"
    INDEX 01 01:15:17
  TRACK 37 AUDIO
    TITLE "2:cjc151_6725"
    INDEX 01 01:16:63
  TRACK 38 AUDIO
    TITLE "0:"
    INDEX 01 01:18:23
  TRACK 39 AUDIO
    TITLE "3:cjc151_6726"
    INDEX 01 01:20:02
  TRACK 40 AUDIO
    TITLE "0:"
    INDEX 01 01:24:32
  TRACK 41 AUDIO
    TITLE "2:cjc151_6727"
    INDEX 01 01:26:09
  TRACK 42 AUDIO
    TITLE "0:"
    INDEX 01 01:27:36
  TRACK 43 AUDIO
    TITLE "3:cjc151_6728"
    INDEX 01 01:29:15
  TRACK 44 AUDIO
    TITLE "0:"
    INDEX 01 01:34:12
  TRACK 45 AUDIO
    TITLE "2:cjc151_6729"
    INDEX 01 01:35:65
  TRACK 46 AUDIO
    TITLE "0:"
    INDEX 01 01:37:09
  TRACK 47 AUDIO
    TITLE "3:cjc151_6730"
    INDEX 01 01:38:61
  TRACK 48 AUDIO
    TITLE "0:"
    INDEX 01 01:43:39
  TRACK 49 AUDIO
    TITLE "2:cjc151_6731"
    INDEX 01 01:45:12
  TRACK 50 AUDIO
    TITLE "0:"
    INDEX 01 01:46:18
  TRACK 51 AUDIO
    TITLE "3:cjc151_6732"
    INDEX 01 01:47:70
  TRACK 52 AUDIO
    TITLE "0:"
    INDEX 01 01:51:66
  TRACK 53 AUDIO
    TITLE "2:cjc151_6733"
    INDEX 01 01:53:45
  TRACK 54 AUDIO
    TITLE "0:"
    INDEX 01 01:54:41
  TRACK 55 AUDIO
    TITLE "3:cjc151_6734"
    INDEX 01 01:56:20
  TRACK 56 AUDIO
    TITLE "0:"
    INDEX 01 01:59:36
  TRACK 57 AUDIO
    TITLE "2:cjc151_6735"
    INDEX 01 02:01:15
  TRACK 58 AUDIO
    TITLE "0:"
    INDEX 01 02:02:24
  TRACK 59 AUDIO
    TITLE "3:cjc151_6736"
    INDEX 01 02:04:02
  TRACK 60 AUDIO
    TITLE "0:"
    INDEX 01 02:07:63
  TRACK 61 AUDIO
    TITLE "2:cjc151_6737"
    INDEX 01 02:09:38
  TRACK 62 AUDIO
    TITLE "0:"
    INDEX 01 02:10:43
  TRACK 63 AUDIO
    TITLE "3:cjc151_6738"
    INDEX 01 02:12:19
  TRACK 64 AUDIO
    TITLE "0:"
    INDEX 01 02:15:13
  TRACK 65 AUDIO
    TITLE "2:cjc151_6739"
    INDEX 01 02:16:66
  TRACK 66 AUDIO
    TITLE "0:"
    INDEX 01 02:18:08
  TRACK 67 AUDIO
    TITLE "3:cjc151_6740"
    INDEX 01 02:19:60
  TRACK 68 AUDIO
    TITLE "0:"
    INDEX 01 02:24:16
  TRACK 69 AUDIO
    TITLE "2:cjc151_6741"
    INDEX 01 02:25:67
  TRACK 70 AUDIO
    TITLE "0:"
    INDEX 01 02:27:38
  TRACK 71 AUDIO
    TITLE "3:cjc151_6742"
    INDEX 01 02:29:15
  TRACK 72 AUDIO
    TITLE "0:"
    INDEX 01 02:32:45
  TRACK 73 AUDIO
    TITLE "2:cjc151_6743"
    INDEX 01 02:34:22
  TRACK 74 AUDIO
    TITLE "0:"
    INDEX 01 02:35:41
  TRACK 75 AUDIO
    TITLE "3:cjc151_6744"
    INDEX 01 02:37:19
  TRACK 76 AUDIO
    TITLE "0:"
    INDEX 01 02:41:44
  TRACK 77 AUDIO
    TITLE "2:cjc151_6745"
    INDEX 01 02:43:21
  TRACK 78 AUDIO
    TITLE "0:"
    INDEX 01 02:44:68
  TRACK 79 AUDIO
    TITLE "3:cjc151_6746"
    INDEX 01 02:46:47
  TRACK 80 AUDIO
    TITLE "0:"
    INDEX 01 02:50:18
  TRACK 81 AUDIO
    TITLE "2:cjc151_6747"
    INDEX 01 02:51:70
  TRACK 82 AUDIO
    TITLE "0:"
    INDEX 01 02:53:12
  TRACK 83 AUDIO
    TITLE "3:cjc151_6748"
    INDEX 01 02:54:68
  TRACK 84 AUDIO
    TITLE "0:"
    INDEX 01 02:59:52
  TRACK 85 AUDIO
    TITLE "2:cjc151_6749"
    INDEX 01 03:01:29
  TRACK 86 AUDIO
    TITLE "0:"
    INDEX 01 03:02:34
  TRACK 87 AUDIO
    TITLE "3:cjc151_6750"
    INDEX 01 03:04:12
  TRACK 88 AUDIO
    TITLE "0:"
    INDEX 01 03:08:25
